<?xml version="1.0" standalone="no"?>
<!DOCTYPE svg PUBLIC "-//W3C//DTD SVG 20010904//EN"
 "http://www.w3.org/TR/2001/REC-SVG-20010904/DTD/svg10.dtd">
<svg version="1.0" xmlns="http://www.w3.org/2000/svg"
 width="512.000000pt" height="512.000000pt" viewBox="0 0 512.000000 512.000000"
 preserveAspectRatio="xMidYMid meet">
<metadata>
Created by potrace 1.14, written by Peter Selinger 2001-2017
</metadata>
<g transform="translate(0.000000,512.000000) scale(0.100000,-0.100000)"
fill="#000000" stroke="none">
<path d="M3355 4319 c-11 -4 -50 -17 -87 -28 -197 -63 -378 -233 -449 -420
-11 -31 -23 -64 -25 -75 -5 -26 -6 -27 -45 -15 -19 5 -41 12 -49 14 -8 1 -42
10 -76 19 -33 9 -76 18 -95 20 -19 3 -52 8 -74 12 -51 9 -76 12 -98 13 -14 1
-17 7 -14 29 7 42 -19 117 -46 131 -34 18 -127 -19 -165 -65 -46 -56 -89 -73
-195 -79 -147 -8 -225 -18 -330 -41 -34 -7 -54 8 -62 46 -4 16 -17 40 -31 52
-13 13 -24 33 -24 46 0 29 -22 71 -49 96 -18 17 -24 17 -53 5 -41 -17 -107
-84 -115 -118 -3 -14 -19 -38 -34 -53 -31 -30 -64 -87 -55 -96 3 -3 -19 -31
-49 -63 -31 -32 -67 -83 -80 -112 -16 -37 -35 -61 -58 -76 -55 -34 -156 -117
-231 -189 -141 -138 -238 -263 -331 -429 -51 -92 -59 -101 -79 -94 -11 5 -43
7 -69 5 -60 -3 -109 -38 -138 -97 -12 -23 -36 -58 -55 -77 -43 -45 -63 -95
-70 -173 -3 -34 -10 -76 -15 -94 -12 -38 -5 -94 18 -143 9 -19 18 -50 20 -69
9 -83 81 -151 159 -151 13 0 24 -3 25 -7 0 -5 2 -15 4 -23 1 -8 6 -35 10 -60
38 -261 161 -491 335 -631 71 -57 185 -128 266 -165 49 -23 74 -40 75 -52 6
-187 10 -208 50 -263 11 -16 23 -28 27 -27 4 1 15 -2 25 -7 28 -12 100 0 152
25 26 12 78 53 117 90 l70 67 62 -13 c34 -7 82 -15 108 -18 26 -3 62 -8 80
-10 154 -22 274 -29 495 -30 l203 -1 57 -45 c115 -90 178 -108 239 -71 36 22
69 71 79 118 8 41 17 46 77 44 27 -1 58 4 69 10 12 6 89 28 173 49 83 21 157
39 164 41 8 2 22 -11 32 -29 59 -108 134 -141 219 -97 48 24 112 105 152 190
21 46 39 90 39 99 0 9 27 34 63 56 34 21 67 43 73 48 5 5 29 22 52 37 23 15
42 32 42 36 0 12 37 11 58 0 54 -28 256 -33 342 -8 31 9 77 30 103 48 l48 32
27 -26 c26 -25 86 -55 124 -62 27 -6 135 40 174 72 24 20 74 94 92 135 12 30
37 123 47 178 17 93 2 290 -29 381 -11 30 -11 42 -1 55 10 15 14 13 33 -17 32
-54 121 -239 134 -280 8 -29 15 -37 31 -33 26 5 55 32 75 69 33 63 14 296 -35
413 -17 40 -80 111 -146 163 -46 37 -51 38 -105 33 -31 -3 -66 -7 -77 -9 -11
-2 -23 -4 -27 -4 -4 -1 -15 -16 -24 -33 -9 -18 -18 -35 -20 -37 -1 -2 -24 15
-51 37 -26 22 -74 56 -106 76 -68 40 -104 42 -194 6 -70 -28 -86 -41 -128
-103 -38 -56 -41 -54 -74 48 -27 83 -84 207 -133 289 l-36 60 25 19 c70 56
132 173 149 282 14 94 23 130 33 133 6 2 11 8 11 14 0 5 7 16 15 24 19 19 34
76 39 150 2 32 10 73 16 89 17 44 19 132 3 199 -27 118 -127 248 -227 294 -27
13 -72 45 -100 71 -65 60 -136 109 -186 126 -3 1 -12 4 -20 7 -56 21 -107 27
-209 26 -64 -1 -125 -5 -136 -9z m180 -89 c-12 -23 -13 -35 -5 -50 8 -16 7
-24 -5 -36 -8 -8 -15 -12 -15 -7 0 5 5 14 12 21 8 8 9 12 1 12 -7 0 -10 12 -8
31 4 26 2 29 -10 19 -8 -7 -12 -17 -8 -24 4 -6 -1 -5 -10 2 -9 8 -21 11 -26 7
-7 -3 -8 0 -5 10 5 12 9 13 20 4 16 -13 19 2 4 17 -7 7 -6 11 4 11 8 0 13 -4
10 -9 -3 -4 0 -8 5 -8 6 0 11 6 11 13 0 9 2 9 9 -1 7 -11 9 -11 14 2 4 9 9 16
12 16 3 0 -1 -14 -10 -30z m-89 11 c12 10 13 9 8 -4 -3 -8 -12 -18 -20 -21 -9
-3 -12 -2 -9 5 9 13 -27 8 -38 -6 -5 -6 -7 -4 -4 5 2 8 9 15 15 15 5 0 14 4
18 8 5 5 10 3 12 -3 3 -8 8 -7 18 1z m128 -3 c-11 -17 -11 -80 -1 -103 7 -15
7 -17 -2 -9 -6 6 -13 20 -16 32 -2 12 -7 27 -10 32 -4 6 1 22 9 35 16 25 34
36 20 13z m50 -11 c-5 -15 -44 -20 -44 -6 0 6 4 8 8 5 4 -2 14 -1 22 5 19 12
20 11 14 -4z m-315 -24 c-13 -16 -27 -32 -32 -38 -4 -5 -5 -1 -1 10 7 18 6 19
-10 6 -17 -15 -8 -36 16 -36 6 0 12 -10 13 -22 1 -16 -3 -20 -18 -17 -22 4
-50 -13 -42 -26 3 -5 0 -12 -6 -16 -8 -5 -9 -3 -4 6 6 10 4 12 -9 7 -10 -4
-20 -7 -22 -7 -2 0 -4 -5 -4 -11 0 -5 5 -7 10 -4 6 3 10 1 10 -5 0 -7 -8 -9
-22 -4 -20 6 -21 5 -9 -10 7 -9 9 -16 3 -16 -23 0 -20 30 5 50 14 11 20 20 12
20 -7 0 -23 -10 -36 -22 -13 -12 -23 -17 -23 -12 0 5 9 15 20 22 11 7 20 17
20 22 0 6 -13 1 -29 -11 -16 -12 -27 -27 -25 -34 3 -6 -8 -17 -23 -23 l-28
-13 23 18 c20 17 21 20 7 40 -18 26 -3 42 21 22 12 -10 18 -9 32 5 16 17 16
18 -5 12 -12 -4 -24 -2 -28 3 -4 7 1 8 11 4 13 -5 15 -3 9 7 -6 9 -4 11 6 5 7
-5 26 -8 41 -7 14 1 30 -3 33 -8 4 -7 -2 -9 -19 -4 -31 8 -34 -1 -5 -17 17 -9
25 -7 44 11 14 13 25 17 28 10 3 -6 4 -5 3 2 -2 7 -14 13 -29 13 -30 1 -43 10
-28 20 6 3 11 1 11 -4 0 -6 4 -11 9 -11 5 0 9 11 9 25 0 23 -2 23 -21 10 -12
-8 -26 -15 -32 -15 -20 1 51 34 75 35 15 0 24 6 22 14 -1 7 2 10 7 7 5 -4 12
-2 16 4 3 5 9 10 12 10 4 0 -4 -12 -18 -27z m50 9 c-7 -3 -23 -12 -33 -21 -19
-16 -19 -16 0 10 11 16 25 24 33 21 13 -5 13 -6 0 -10z m294 11 c-7 -2 -13 -9
-13 -14 0 -4 6 -6 13 -3 7 2 25 -5 40 -16 28 -22 35 -40 16 -40 -5 0 -7 5 -4
10 11 17 -7 11 -21 -7 -18 -24 -17 -38 1 -23 9 7 18 10 22 6 3 -3 1 -6 -5 -6
-7 0 -12 -4 -12 -9 0 -5 11 -8 25 -8 14 0 25 3 25 8 0 5 -5 9 -11 9 -8 0 -8 4
0 14 12 14 5 46 -10 46 -5 0 -9 5 -9 12 0 6 7 4 18 -5 10 -10 21 -14 25 -11 3
3 3 -3 0 -15 -3 -12 -1 -21 6 -21 6 0 11 -5 11 -11 0 -8 -6 -7 -17 2 -15 12
-16 12 -10 -3 10 -27 -2 -51 -19 -37 -10 8 -13 6 -11 -10 2 -31 24 -24 45 14
6 11 12 14 12 7 0 -21 -52 -65 -61 -50 -4 7 -6 15 -3 19 2 4 -9 17 -25 29 -30
21 -30 21 -11 40 32 32 22 47 -27 41 -7 -1 -13 4 -13 12 0 17 10 27 24 26 6 0
5 -3 -1 -6z m42 -11 c-3 -3 -11 0 -18 7 -9 10 -8 11 6 5 10 -3 15 -9 12 -12z
m-45 -44 c0 7 4 12 10 12 5 0 7 -7 3 -16 -3 -8 -11 -13 -18 -10 -7 2 -22 -2
-33 -10 -17 -12 -21 -12 -25 1 -4 8 -1 12 6 9 8 -2 13 4 14 17 2 17 -1 18 -13
9 -9 -8 -14 -9 -14 -2 0 20 25 19 48 -1 12 -11 22 -15 22 -9z m154 -11 c4 4 4
0 0 -10 -5 -13 -2 -16 12 -11 15 5 16 4 5 -4 -9 -7 -14 -27 -14 -56 1 -51 -8
-64 -27 -41 -7 8 -17 15 -23 15 -6 0 0 -12 14 -27 l24 -28 -26 23 c-34 30 -48
28 -19 -3 13 -14 20 -25 15 -25 -4 0 -15 8 -24 18 -21 24 -46 33 -60 21 -8 -6
-8 -5 -1 3 19 22 10 29 -14 11 -13 -10 -22 -21 -19 -25 2 -4 -4 -5 -13 -1 -10
4 -15 2 -11 -3 3 -6 2 -16 -2 -23 -6 -10 -10 -9 -14 4 -5 11 3 22 27 36 23 13
34 27 33 40 -1 11 -7 17 -14 15 -7 -3 -10 1 -6 10 5 14 -12 20 -20 7 -2 -5 -2
-2 -1 5 4 14 -12 16 -21 3 -6 -10 21 -41 36 -41 5 0 9 -4 9 -10 0 -16 -56 22
-57 40 -1 10 10 23 25 30 15 6 24 8 20 4 -4 -4 7 -18 24 -31 18 -12 27 -23 20
-23 -7 0 -3 -9 9 -21 18 -18 25 -19 46 -10 30 14 29 14 47 -5 11 -10 16 -11
16 -3 0 6 -7 17 -16 23 -16 12 -9 51 7 40 5 -3 9 2 9 11 0 10 -5 13 -12 9 -6
-4 -8 -3 -5 4 10 15 -3 43 -16 35 -6 -4 -7 -1 -2 7 6 10 11 10 20 -3 7 -9 15
-14 19 -10z m-619 -7 c3 -5 1 -10 -4 -10 -6 0 -11 5 -11 10 0 6 2 10 4 10 3 0
8 -4 11 -10z m368 -24 c3 -8 -1 -20 -9 -27 -8 -6 -12 -14 -9 -17 3 -3 14 3 25
13 11 10 20 15 20 10 0 -4 -7 -13 -16 -19 -14 -11 -14 -13 2 -27 16 -12 17
-12 11 4 -6 16 -4 16 23 2 17 -9 30 -18 30 -21 0 -2 -9 0 -19 6 -12 6 -22 6
-26 1 -3 -5 0 -11 7 -14 7 -2 5 -3 -4 -2 -33 5 -58 -54 -32 -76 8 -6 14 -16
14 -22 0 -6 -7 -1 -16 11 -10 15 -22 21 -33 18 -14 -5 -14 -4 -1 7 8 6 16 19
18 27 2 8 10 22 18 31 13 14 13 18 0 28 -11 9 -20 10 -35 1 -14 -7 -21 -7 -21
0 0 5 8 10 18 10 14 0 15 2 2 10 -10 6 -11 10 -2 10 6 0 12 5 12 11 0 5 -4 7
-10 4 -5 -3 -10 -1 -10 5 0 7 8 9 22 4 20 -6 21 -5 9 10 -7 9 -9 16 -3 16 5 0
12 -6 15 -14z m-219 -4 c3 -5 -1 -9 -9 -9 -8 0 -15 4 -15 9 0 4 4 8 9 8 6 0
12 -4 15 -8z m114 -18 c-2 -10 3 -19 10 -21 7 -3 10 1 6 10 -3 8 -1 18 5 22 7
4 8 -1 4 -12 -6 -16 -5 -16 10 -4 11 9 17 10 17 2 0 -6 -3 -11 -7 -11 -5 0 -8
-18 -9 -40 0 -36 1 -38 16 -25 9 8 20 12 23 8 4 -3 7 -1 7 5 0 7 5 12 10 12 6
0 3 -11 -6 -25 -9 -14 -20 -22 -26 -19 -10 7 -38 -14 -38 -28 0 -6 7 -5 15 2
9 7 18 11 21 8 2 -3 -7 -13 -22 -23 -15 -9 -24 -12 -20 -7 3 6 -4 18 -16 26
-19 14 -21 19 -10 36 14 24 15 30 3 30 -5 0 -13 -9 -16 -21 -5 -16 -9 -18 -21
-8 -8 6 -17 10 -20 7 -2 -3 12 -20 32 -38 31 -27 33 -31 13 -25 -22 7 -23 7
-9 -11 14 -17 13 -18 -1 -7 -9 7 -20 9 -24 5 -5 -4 -4 -1 0 7 6 11 4 13 -8 8
-11 -4 -14 -2 -10 9 4 11 9 12 19 3 24 -20 15 4 -13 35 -16 17 -24 28 -19 24
5 -4 18 -3 29 3 14 8 18 8 13 0 -11 -17 5 -13 18 5 7 9 18 12 28 9 15 -6 16
-9 3 -29 -14 -22 -11 -36 7 -36 4 0 7 3 6 8 -1 4 2 18 6 30 7 20 2 29 -26 54
-18 16 -27 27 -20 23 6 -3 12 -1 12 4 0 6 2 11 5 11 3 0 5 -7 3 -16z m385 -1
c-5 -11 -3 -14 6 -8 10 6 11 3 2 -14 -15 -27 -17 -27 -15 7 2 30 2 32 9 32 2
0 1 -7 -2 -17z m-759 -35 c-6 -20 -5 -21 10 -9 10 9 16 10 16 2 0 -11 -13 -15
-39 -11 -12 1 -13 -1 -2 -13 10 -13 8 -16 -9 -22 -11 -3 -18 -10 -15 -14 2 -5
-4 -16 -15 -26 -19 -17 -41 -13 -39 8 0 9 2 9 6 0 8 -22 25 -14 19 10 -3 12
-3 16 0 10 10 -22 22 -14 19 12 -2 21 0 23 12 13 12 -10 14 -9 12 3 -3 12 20
59 29 59 2 0 0 -10 -4 -22z m173 -30 c2 6 10 12 16 12 6 0 4 -7 -5 -16 -17
-17 -38 -12 -38 9 0 7 4 6 11 -3 8 -11 12 -12 16 -2z m-63 -48 c4 0 2 -7 -5
-16 -12 -15 -11 -16 7 -10 15 5 24 2 28 -10 4 -9 4 -19 1 -22 -3 -3 -5 -1 -5
5 0 19 -38 8 -69 -20 -17 -15 -31 -24 -31 -20 0 3 14 19 32 35 17 15 27 28 20
28 -6 0 -25 -13 -43 -29 -27 -25 -30 -32 -20 -45 8 -9 17 -13 22 -10 5 3 9 0
9 -5 0 -16 -16 -13 -34 5 -14 13 -16 13 -16 1 0 -8 7 -18 16 -21 8 -3 12 -10
9 -16 -3 -5 -2 -10 4 -10 5 0 11 6 14 13 2 6 4 -5 4 -25 -1 -32 -3 -35 -19
-27 -13 7 -21 5 -30 -10 -12 -19 -12 -19 -37 1 l-26 19 -17 -21 c-10 -12 -15
-26 -12 -31 5 -8 -9 -13 -28 -10 -5 0 -8 -4 -8 -10 0 -7 11 -8 29 -4 17 3 32
2 36 -4 3 -6 11 -11 17 -11 7 0 6 5 -2 15 -12 15 -6 35 11 35 5 0 9 -5 9 -11
0 -5 -4 -7 -10 -4 -17 10 -11 -5 10 -28 12 -12 16 -23 10 -25 -5 -2 -7 -9 -4
-14 4 -7 2 -8 -4 -4 -6 4 -8 14 -5 24 6 14 4 15 -9 4 -13 -10 -17 -10 -22 4
-4 11 -14 14 -34 9 -20 -4 -33 -1 -42 10 -11 13 -2 22 14 13 3 -2 15 13 29 32
16 23 21 39 15 47 -12 15 -50 12 -44 -4 3 -7 -1 -10 -10 -6 -7 3 -14 1 -14 -5
0 -6 6 -13 13 -15 9 -4 9 -6 0 -6 -21 -2 -26 20 -9 38 17 19 12 56 -7 44 -6
-4 -7 -1 -2 7 6 10 11 9 22 -6 12 -16 15 -17 24 -4 9 12 10 12 5 -3 -4 -11 -2
-17 5 -15 6 2 10 7 10 11 -1 4 -1 14 -1 23 0 10 -6 14 -15 10 -20 -7 -46 4
-39 16 4 6 10 5 15 -3 4 -7 11 -10 15 -6 4 3 1 13 -6 22 -7 8 -8 15 -4 15 5 0
15 -9 22 -21 7 -12 16 -18 19 -15 3 3 0 12 -7 21 -8 10 -9 15 -1 15 6 0 11 -5
11 -11 0 -5 5 -7 10 -4 7 4 7 11 2 18 -6 8 0 20 19 35 16 13 29 20 29 15 0 -4
-9 -14 -20 -21 -11 -7 -20 -18 -20 -24 0 -9 3 -9 12 0 15 15 28 15 28 1 0 -5
-4 -8 -9 -5 -4 3 -16 -3 -26 -14 -17 -19 -17 -21 0 -40 21 -24 14 -27 -9 -4
-14 13 -16 13 -16 1 0 -8 7 -18 16 -21 8 -3 12 -10 9 -16 -3 -5 1 -10 10 -10
9 0 14 4 11 8 -2 4 0 14 6 22 8 12 9 11 4 -3 -4 -11 -2 -17 5 -15 6 2 10 7 10
11 -1 4 -1 14 -1 23 0 10 -6 14 -15 11 -17 -7 -29 8 -20 24 5 7 13 5 24 -5 17
-15 18 -13 16 33 -2 27 -6 54 -9 60 -4 6 -3 11 2 11 17 0 33 -50 22 -70 -16
-31 -11 -37 10 -11 11 13 20 20 20 15 0 -4 3 -5 6 -1 3 3 -3 19 -14 34 -20 28
-20 30 -3 40 15 10 20 8 30 -13 6 -15 7 -24 1 -24 -6 0 -10 7 -10 15 0 8 -4
15 -10 15 -13 0 -13 -6 0 -30 6 -12 17 -16 30 -13 24 6 25 13 5 39 -8 10 -14
24 -14 29 0 6 7 -2 17 -17 9 -16 21 -28 26 -28z m176 25 c10 -18 8 -28 -8 -54
-12 -19 -23 -28 -26 -22 -4 6 -2 11 5 11 19 0 1 13 -23 17 -17 3 -19 1 -8 -12
7 -9 8 -15 2 -15 -5 0 -13 8 -16 17 -6 14 -9 15 -21 2 -7 -8 -15 -21 -17 -29
-2 -8 -13 -23 -25 -33 -23 -18 -33 -44 -13 -32 6 3 10 4 10 1 0 -2 3 -11 6
-20 3 -9 1 -16 -6 -16 -6 0 -8 5 -5 10 10 17 -7 11 -22 -7 -13 -17 -13 -17 -5
2 5 11 7 25 5 32 -2 6 1 14 6 18 16 9 13 25 -3 25 -8 0 -18 5 -22 12 -5 7 -2
9 7 6 8 -3 21 -9 30 -13 19 -7 31 24 18 47 -5 10 -4 15 5 15 9 0 12 -7 8 -16
-5 -14 -3 -14 14 1 19 16 23 18 45 18 5 0 7 6 3 13 -4 6 2 3 15 -7 16 -14 24
-17 33 -8 13 13 4 42 -13 42 -8 0 -8 -4 1 -15 16 -19 3 -20 -16 0 -9 8 -13 19
-10 23 10 16 34 9 46 -13z m580 11 c-9 -12 -8 -15 9 -13 12 1 21 5 21 9 0 4 5
8 11 8 8 0 8 -4 -1 -14 -10 -13 -7 -15 16 -13 15 1 29 -4 31 -10 3 -7 0 -13
-7 -13 -6 0 -9 4 -5 9 3 5 -16 8 -44 7 -28 -2 -48 1 -45 6 8 12 -10 10 -24 -4
-9 -9 -12 -9 -12 2 0 10 -4 9 -18 -3 -10 -10 -23 -17 -28 -17 -16 0 40 34 58
35 10 1 24 7 30 13 17 17 23 15 8 -2z m-362 -20 c-7 -8 -15 -12 -17 -11 -5 6
10 25 20 25 5 0 4 -6 -3 -14z m119 -8 c-3 -8 -6 -5 -6 6 -1 11 2 17 5 13 3 -3
4 -12 1 -19z m-35 -12 c7 4 8 2 4 -4 -4 -6 -13 -9 -21 -6 -8 4 -12 11 -8 17 5
8 8 7 11 -1 2 -7 9 -9 14 -6z m24 -26 c0 -12 -4 -16 -9 -11 -5 5 -6 14 -3 20
10 15 12 14 12 -9z m192 9 c-2 -6 -8 -11 -13 -11 -6 0 -16 -4 -22 -10 -7 -6
-13 -7 -13 -2 -1 10 -29 -37 -30 -48 0 -4 6 -5 14 -2 8 3 17 1 21 -5 3 -7 0
-8 -9 -5 -14 6 -21 -10 -17 -38 0 -4 -5 -5 -12 -2 -8 3 -13 -4 -14 -17 -2 -17
1 -18 13 -8 23 19 35 -2 19 -31 -8 -14 -14 -19 -15 -12 0 7 -4 11 -10 7 -5 -3
-7 -13 -4 -23 3 -9 -1 -7 -8 6 -8 12 -18 19 -23 15 -4 -4 -5 -3 -1 4 4 7 14 9
24 6 15 -6 15 -5 3 10 -7 9 -18 14 -25 11 -6 -3 -4 0 5 8 9 7 15 20 14 29 -2
9 9 38 24 65 20 37 32 49 49 48 12 -1 22 3 22 7 0 5 3 9 6 9 3 0 4 -5 2 -11z
m137 -7 c-3 -3 -11 0 -18 7 -9 10 -8 11 6 5 10 -3 15 -9 12 -12z m46 11 c-11
-5 -11 -7 0 -15 11 -7 9 -8 -4 -4 -12 4 -17 2 -14 -6 2 -7 13 -12 24 -11 11 1
31 -10 44 -25 18 -20 19 -23 4 -12 -11 8 -23 20 -27 25 -5 6 -12 4 -19 -5 -8
-11 -12 -12 -16 -2 -2 6 -8 10 -12 8 -4 -3 -8 5 -8 17 -2 21 12 37 32 36 6 0
4 -3 -4 -6z m-474 -25 c-3 -8 -6 -5 -6 6 -1 11 2 17 5 13 3 -3 4 -12 1 -19z
m-602 2 c3 -5 1 -10 -4 -10 -6 0 -11 5 -11 10 0 6 2 10 4 10 3 0 8 -4 11 -10z
m740 0 c-3 -5 -12 -10 -18 -10 -7 0 -6 4 3 10 19 12 23 12 15 0z m-452 -17
c-5 -12 -3 -14 8 -8 11 6 12 5 2 -6 -17 -17 -16 -29 1 -29 21 0 40 -26 25 -36
-7 -4 -9 -3 -6 3 4 6 -5 15 -19 22 -36 16 -42 13 -17 -8 l22 -18 -25 0 c-34 0
-42 24 -15 43 12 9 19 20 16 25 -4 5 -3 14 0 19 10 16 15 12 8 -7z m107 13 c0
-2 -7 -7 -16 -10 -8 -3 -12 -2 -9 4 6 10 25 14 25 6z m167 -11 c5 -4 2 -4 -6
0 -11 6 -13 4 -8 -8 4 -11 2 -14 -8 -10 -8 3 -13 9 -10 13 3 5 -1 11 -7 14 -7
2 -3 4 9 2 12 -1 26 -6 30 -11z m54 -8 c-10 -9 -11 -8 -5 6 3 10 9 15 12 12 3
-3 0 -11 -7 -18z m52 3 c-3 -12 -8 -19 -11 -16 -5 6 5 36 12 36 2 0 2 -9 -1
-20z m304 3 c-4 -3 -2 -12 5 -20 8 -11 7 -12 -6 -7 -9 3 -16 9 -16 13 0 9 11
21 18 21 3 0 2 -3 -1 -7z m-644 -20 c-4 -10 -2 -14 4 -10 11 7 28 -22 18 -31
-3 -3 -5 0 -5 6 0 6 -9 13 -19 17 -19 6 -19 35 0 35 4 0 5 -7 2 -17z m87 7 c8
-5 11 -10 5 -10 -5 0 -17 5 -25 10 -8 5 -10 10 -5 10 6 0 17 -5 25 -10z m55 0
c3 -5 2 -10 -4 -10 -5 0 -13 5 -16 10 -3 6 -2 10 4 10 5 0 13 -4 16 -10z m390
-10 c3 -6 -1 -7 -9 -4 -18 7 -21 14 -7 14 6 0 13 -4 16 -10z m-666 -9 c9 -6
10 -11 3 -15 -6 -4 -9 -13 -6 -20 3 -7 -2 -20 -10 -29 -17 -16 -22 -32 -8 -23
5 3 9 -1 9 -8 0 -7 -5 -13 -12 -13 -6 0 -11 18 -11 41 0 23 1 35 3 29 8 -22
21 -14 21 12 0 14 -4 25 -9 25 -5 0 -9 -5 -9 -11 0 -5 -5 -7 -11 -3 -8 4 -7 9
2 15 8 5 16 9 19 9 3 0 11 -4 19 -9z m210 -5 c9 -11 8 -14 -6 -12 -10 0 -18
-5 -18 -13 0 -8 -7 -16 -15 -18 -10 -3 -11 -2 -4 4 6 4 10 16 8 26 -1 9 2 15
7 11 5 -3 9 0 9 5 0 15 5 14 19 -3z m32 -13 c-8 -15 -10 -15 -11 -2 0 17 10
32 18 25 2 -3 -1 -13 -7 -23z m77 6 c8 -12 9 -18 3 -15 -5 4 -12 2 -16 -4 -3
-5 -1 -10 6 -10 7 0 10 -3 6 -6 -3 -3 -11 -3 -17 1 -8 5 -8 11 1 21 8 10 8 14
0 14 -6 0 -11 5 -11 10 0 17 14 11 28 -11z m103 -7 c-7 -2 -18 1 -23 6 -8 8
-4 9 13 5 13 -4 18 -8 10 -11z m74 0 c-3 -3 -11 0 -18 7 -9 10 -8 11 6 5 10
-3 15 -9 12 -12z m210 8 c4 -6 -1 -7 -11 -3 -11 4 -15 2 -11 -4 4 -6 0 -14 -8
-17 -13 -4 -14 -2 -5 14 12 22 25 26 35 10z m231 -5 c16 -8 24 -15 18 -15 -7
0 -25 7 -40 15 -16 8 -24 15 -18 15 7 0 25 -7 40 -15z m-109 -1 c-3 -3 -13 -7
-22 -8 -9 -1 -21 -9 -26 -17 -5 -8 -9 -9 -9 -3 0 16 18 30 41 31 12 1 19 0 16
-3z m-167 -49 c0 -5 -5 -3 -10 5 -5 8 -10 20 -10 25 0 6 5 3 10 -5 5 -8 10
-19 10 -25z m69 13 c-12 -22 -21 -24 -13 -3 5 11 2 13 -9 9 -9 -3 -13 -12 -11
-19 3 -7 1 -16 -5 -20 -7 -4 -8 0 -4 11 4 12 3 15 -5 10 -7 -4 -12 -3 -12 2 0
10 37 29 57 29 8 0 9 -5 2 -19z m-507 0 c-14 -14 -44 -20 -36 -7 3 5 9 7 14 4
5 -3 11 -1 15 5 3 5 9 10 13 10 3 0 1 -5 -6 -12z m44 -11 c1 -9 -2 -15 -7 -11
-5 3 -7 9 -4 14 3 4 0 11 -5 13 -6 3 -5 4 1 3 7 -1 13 -10 15 -19z m91 17 c-3
-3 -12 -4 -19 -1 -8 3 -5 6 6 6 11 1 17 -2 13 -5z m46 -7 c4 3 7 1 7 -5 0 -17
-16 -15 -31 6 -12 15 -12 16 2 5 9 -7 19 -10 22 -6z m349 -10 c-7 -8 -10 -16
-7 -19 3 -3 -2 -11 -12 -19 -15 -12 -16 -12 -8 1 6 8 10 17 11 20 3 17 17 40
22 36 3 -3 0 -12 -6 -19z m230 -22 c9 -20 9 -20 -6 -1 -9 11 -16 27 -15 35 0
14 1 14 6 1 3 -8 10 -24 15 -35z m-1246 7 c-17 -16 -18 -16 -5 5 7 12 15 20
18 17 3 -2 -3 -12 -13 -22z m429 10 c-3 -3 -11 0 -18 7 -9 10 -8 11 6 5 10 -3
15 -9 12 -12z m295 8 c12 -7 10 -9 -8 -7 -12 0 -22 5 -22 9 0 11 12 10 30 -2z
m-387 -31 c-4 -15 -8 -17 -14 -8 -6 11 4 28 18 29 0 0 -1 -9 -4 -21z m160 0
c-4 -15 -8 -17 -14 -8 -6 11 4 28 18 29 0 0 -1 -9 -4 -21z m637 -14 c0 -8 -9
-19 -20 -25 -16 -9 -18 -8 -14 5 3 8 10 12 15 9 5 -3 9 2 9 11 0 10 -5 13 -12
9 -7 -4 -8 -3 -4 5 9 14 26 5 26 -14z m-1075 -9 c-9 -13 -23 -27 -31 -30 -15
-6 -57 28 -47 38 4 3 12 -3 20 -14 16 -22 39 -17 48 11 4 10 11 19 16 19 5 0
2 -11 -6 -24z m670 15 c3 -5 2 -12 -3 -15 -5 -3 -9 1 -9 9 0 17 3 19 12 6z
m213 -13 c9 -11 10 -18 2 -23 -6 -4 -9 -1 -8 7 2 7 -2 12 -9 11 -7 -2 -10 4
-6 13 3 8 6 14 7 12 1 -2 7 -10 14 -20z m96 14 c3 -5 -1 -9 -9 -9 -8 0 -12 4
-9 9 3 4 7 8 9 8 2 0 6 -4 9 -8z m-748 -18 c-3 -21 -33 -39 -33 -20 0 8 7 12
14 9 8 -3 13 -2 12 3 -2 13 0 24 5 24 2 0 3 -7 2 -16z m682 -9 c-3 -3 -9 2
-12 12 -6 14 -5 15 5 6 7 -7 10 -15 7 -18z m238 -9 c0 -15 -5 -21 -10 -16 -5
5 -6 16 -3 24 9 23 15 19 13 -8z m54 -11 c0 -5 -5 -3 -10 5 -5 8 -10 20 -10
25 0 6 5 3 10 -5 5 -8 10 -19 10 -25z m-1157 18 c-7 -2 -13 -12 -13 -20 0 -9
-3 -14 -6 -10 -10 10 4 37 18 36 10 0 10 -2 1 -6z m79 0 c-6 -2 -10 -9 -6 -14
3 -5 0 -9 -5 -9 -12 0 -14 13 -4 23 3 4 11 7 17 6 6 0 5 -3 -2 -6z m32 -15
c-10 -13 -20 -25 -21 -27 -2 -2 -3 1 -3 7 0 11 27 42 37 42 3 0 -2 -10 -13
-22z m146 0 c0 -6 -6 -5 -15 2 -8 7 -15 14 -15 16 0 2 7 1 15 -2 8 -4 15 -11
15 -16z m152 4 c-7 -2 -10 -8 -7 -13 4 -5 -2 -6 -11 -2 -13 5 -15 3 -9 -7 6
-9 4 -11 -5 -5 -10 6 -10 11 3 20 9 7 14 15 10 19 -4 4 1 4 12 0 11 -5 14 -9
7 -12z m499 -5 c-10 -9 -11 -8 -5 6 3 10 9 15 12 12 3 -3 0 -11 -7 -18z
m-1031 -1 c-1 -5 4 -13 12 -18 11 -8 11 -9 0 -6 -8 2 -13 7 -12 12 1 5 -4 13
-12 18 -11 8 -11 9 0 6 8 -2 13 -7 12 -12z m430 -9 c0 -2 -8 -3 -18 -3 -10 0
-19 6 -19 13 0 8 6 9 19 2 10 -5 18 -11 18 -12z m160 -2 c0 -2 -5 -7 -12 -11
-7 -5 -8 -3 -3 6 6 9 4 12 -7 8 -8 -4 -15 0 -15 7 0 10 5 11 19 4 10 -5 18
-12 18 -14z m56 13 c5 -7 3 -8 -6 -3 -10 6 -12 4 -6 -11 5 -14 4 -16 -5 -7 -6
6 -8 16 -5 22 9 14 13 14 22 -1z m302 -24 c-4 -3 -12 5 -18 18 -12 22 -12 22
6 6 10 -10 15 -20 12 -24z m-764 -24 c-6 -5 -24 21 -24 34 0 6 6 1 14 -10 8
-10 12 -21 10 -24z m941 31 c3 -5 2 -12 -3 -15 -5 -3 -9 1 -9 9 0 17 3 19 12
6z m-864 -19 c-7 -2 -18 1 -23 6 -8 8 -4 9 13 5 13 -4 18 -8 10 -11z m663 5
c14 -10 15 -14 4 -14 -7 0 -19 6 -26 14 -7 7 -9 13 -4 13 4 0 16 -6 26 -13z
m46 -2 c0 -8 -4 -15 -10 -15 -5 0 -7 7 -4 15 4 8 8 15 10 15 2 0 4 -7 4 -15z
m307 -17 c-3 -7 -5 -2 -5 12 0 14 2 19 5 13 2 -7 2 -19 0 -25z m-807 13 c0 -6
-4 -12 -8 -15 -5 -3 -9 1 -9 9 0 8 4 15 9 15 4 0 8 -4 8 -9z m80 -1 c0 -5 -4
-10 -10 -10 -5 0 -10 5 -10 10 0 6 5 10 10 10 6 0 10 -4 10 -10z m125 1 c-3
-2 -16 -6 -28 -8 -15 -2 -18 0 -9 5 14 9 45 12 37 3z m332 -16 c0 -8 -4 -12
-9 -9 -5 3 -6 10 -3 15 9 13 12 11 12 -6z m-626 -22 c-12 -20 -14 -14 -5 12 4
9 9 14 11 11 3 -2 0 -13 -6 -23z m123 15 c-5 -8 -2 -9 9 -5 23 9 21 0 -2 -13
-16 -8 -19 -7 -16 8 5 23 4 22 11 22 3 0 2 -5 -2 -12z m74 -16 c-7 -10 -13
-18 -14 -20 -1 -1 -4 6 -7 17 -3 15 -1 18 11 14 11 -5 13 -3 7 7 -5 9 -4 11 4
6 9 -6 9 -12 -1 -24z m-131 -14 c-3 -8 -6 -5 -6 6 -1 11 2 17 5 13 3 -3 4 -12
1 -19z m437 14 c3 -5 -1 -9 -9 -9 -8 0 -12 4 -9 9 3 4 7 8 9 8 2 0 6 -4 9 -8z
m307 -19 c13 -17 13 -17 -6 -3 -11 8 -22 16 -24 17 -2 2 0 3 6 3 6 0 17 -8 24
-17z m-481 -8 c0 -2 -9 -3 -19 -2 -11 0 -18 5 -15 9 4 6 34 0 34 -7z m255 6
c3 -5 2 -12 -3 -15 -5 -3 -9 1 -9 9 0 17 3 19 12 6z m-565 -13 c16 5 15 3 -15
-18 -11 -8 -17 -10 -13 -6 4 5 0 15 -10 23 -16 13 -15 13 3 5 11 -5 27 -7 35
-4z m195 -9 c-5 -16 -4 -19 5 -14 8 5 11 4 6 -3 -4 -6 -13 -9 -21 -6 -11 5
-12 10 -2 25 16 25 20 24 12 -2z m-125 -3 c-7 -7 -13 -7 -20 0 -6 6 -3 10 10
10 13 0 16 -4 10 -10z m65 4 c3 -6 -1 -7 -9 -4 -18 7 -21 14 -7 14 6 0 13 -4
16 -10z m111 -16 c1 -9 0 -13 -4 -10 -3 4 -7 14 -8 22 -1 9 0 13 4 10 3 -4 7
-14 8 -22z m507 6 c3 -11 1 -18 -4 -14 -5 3 -9 12 -9 20 0 20 7 17 13 -6z m72
10 c3 -5 1 -10 -4 -10 -6 0 -11 5 -11 10 0 6 2 10 4 10 3 0 8 -4 11 -10z
m-180 -12 c5 4 5 1 1 -6 -6 -10 -11 -10 -22 -1 -8 6 -14 14 -14 16 0 3 6 0 13
-6 8 -6 18 -7 22 -3z m-625 -28 c0 -10 -3 -21 -7 -23 -5 -3 -8 8 -8 23 0 15 3
26 8 23 4 -2 7 -13 7 -23z m95 1 c0 -16 -3 -27 -7 -24 -13 7 -7 53 6 53 1 0 1
-13 1 -29z m212 14 c0 -8 -4 -12 -9 -9 -5 3 -6 10 -3 15 9 13 12 11 12 -6z
m467 0 c-4 -8 -11 -12 -16 -9 -6 4 -5 10 3 15 19 12 19 11 13 -6z m-624 -17
c0 -4 -4 -8 -9 -8 -6 0 -12 4 -15 8 -3 5 1 9 9 9 8 0 15 -4 15 -9z m669 -1
c-2 -1 -13 -9 -24 -17 -19 -14 -19 -14 -6 3 7 9 18 17 24 17 6 0 8 -1 6 -3z
m-772 -14 c-4 -3 -1 -13 6 -22 11 -14 10 -14 -5 -2 -21 15 -23 31 -6 31 6 0 8
-3 5 -7z m180 -15 c2 -17 0 -19 -7 -8 -5 8 -6 18 -4 22 8 12 10 10 11 -14z
m279 7 c-1 -8 -5 -17 -8 -21 -5 -4 -4 16 1 34 3 9 9 -1 7 -13z m55 -8 c-10 -9
-11 -8 -5 6 3 10 9 15 12 12 3 -3 0 -11 -7 -18z m-374 -2 c0 -8 -4 -12 -9 -9
-5 3 -6 10 -3 15 9 13 12 11 12 -6z m143 11 c0 -2 -8 -10 -17 -17 -16 -13 -17
-12 -4 4 13 16 21 21 21 13z m-360 -16 c0 -5 -2 -10 -4 -10 -3 0 -8 5 -11 10
-3 6 -1 10 4 10 6 0 11 -4 11 -10z m154 2 c2 -4 -5 -9 -17 -9 -17 -2 -19 0 -7
7 18 12 18 12 24 2z m486 -4 c0 -4 -4 -8 -9 -8 -6 0 -12 4 -15 8 -3 5 1 9 9 9
8 0 15 -4 15 -9z m-324 -20 c3 -4 -1 -5 -10 -4 -8 1 -18 5 -22 8 -3 4 1 5 10
4 8 -1 18 -5 22 -8z m275 -14 c5 -15 8 -29 5 -31 -2 -2 -8 10 -14 26 -13 38
-5 41 9 5z m92 11 c-3 -9 -8 -14 -10 -11 -3 3 -2 9 2 15 9 16 15 13 8 -4z
m-582 -10 c5 4 6 -2 2 -11 -4 -11 -8 -13 -11 -6 -2 7 -8 10 -13 7 -5 -4 -6 2
-2 11 4 11 8 13 11 6 2 -7 8 -10 13 -7z m86 -3 c-10 -10 -14 -22 -10 -27 5 -4
2 -5 -5 -1 -11 6 -10 12 4 27 9 10 19 19 22 19 3 0 -2 -8 -11 -18z m524 -9
c13 -16 12 -17 -3 -4 -10 7 -18 15 -18 17 0 8 8 3 21 -13z m49 -5 c10 -21 10
-21 -3 -6 -8 10 -18 14 -22 10 -5 -4 -5 -1 -1 6 10 17 14 15 26 -10z m-463 -3
c0 -8 -4 -12 -9 -9 -5 3 -6 10 -3 15 9 13 12 11 12 -6z m263 1 c0 -2 -7 -7
-16 -10 -8 -3 -12 -2 -9 4 6 10 25 14 25 6z m269 -56 c3 -3 7 -11 9 -18 5 -24
-15 -4 -28 28 -9 22 -16 28 -23 21 -6 -6 -15 -11 -19 -11 -4 0 0 8 10 18 16
18 18 17 31 -7 8 -14 17 -28 20 -31z m-254 40 c-3 -5 -12 -10 -18 -10 -7 0 -6
4 3 10 19 12 23 12 15 0z m119 -4 c-3 -9 -12 -12 -22 -9 -15 6 -9 11 25 22 1
1 0 -5 -3 -13z m158 2 c-9 -9 -9 -15 1 -27 10 -14 10 -14 -5 -3 -17 14 -14 42
5 42 8 0 7 -4 -1 -12z m-516 -13 c-1 -8 -5 -17 -8 -21 -5 -4 -4 16 1 34 3 9 9
-1 7 -13z m306 -13 c-7 -2 -10 -8 -7 -13 4 -5 -2 -6 -11 -2 -11 4 -13 8 -6 11
7 2 10 8 7 13 -4 5 2 6 11 2 11 -4 13 -8 6 -11z m-427 -1 c-9 -8 -36 -10 -30
-2 2 4 11 8 20 8 8 0 13 -3 10 -6z m82 -6 c0 -8 -4 -12 -9 -9 -5 3 -6 10 -3
15 9 13 12 11 12 -6z m300 -10 c0 -8 -4 -15 -9 -15 -10 0 -11 14 -1 23 9 10
10 9 10 -8z m130 -17 c-3 -7 -5 -2 -5 12 0 14 2 19 5 13 2 -7 2 -19 0 -25z
m73 28 c0 -3 -4 -8 -10 -11 -5 -3 -10 -1 -10 4 0 6 5 11 10 11 6 0 10 -2 10
-4z m-97 -21 c-3 -9 -8 -14 -10 -11 -3 3 -2 9 2 15 9 16 15 13 8 -4z m111 -13
c3 -5 -1 -9 -9 -9 -8 0 -12 4 -9 9 3 4 7 8 9 8 2 0 6 -4 9 -8z m-497 -17 c0
-8 -4 -15 -9 -15 -10 0 -11 14 -1 23 9 10 10 9 10 -8z m39 -7 c4 -7 3 -8 -4
-4 -7 4 -12 2 -12 -5 0 -7 -3 -10 -6 -6 -6 5 3 27 11 27 2 0 7 -5 11 -12z
m304 7 c0 -7 -30 -13 -34 -7 -3 4 4 9 15 9 10 1 19 0 19 -2z m60 -9 c-7 -7
-13 -7 -20 0 -6 6 -3 10 10 10 13 0 16 -4 10 -10z m75 4 c13 -6 15 -9 5 -9 -8
0 -22 4 -30 9 -18 12 -2 12 25 0z m-524 -33 c-8 -8 -14 -7 -23 2 -11 10 -9 11
6 5 15 -6 17 -4 11 6 -6 9 -4 11 4 5 9 -5 10 -10 2 -18z m397 -8 c-3 -8 -7 -3
-11 10 -4 17 -3 21 5 13 5 -5 8 -16 6 -23z m108 19 c4 -6 3 -8 -4 -4 -5 3 -12
1 -14 -6 -2 -6 -12 -12 -21 -14 -9 -1 -15 2 -11 7 3 5 9 7 14 4 4 -3 10 2 14
10 7 18 12 19 22 3z m-338 -16 c2 -7 -1 -12 -8 -12 -6 0 -9 4 -6 9 4 5 1 12
-4 14 -6 3 -5 4 2 3 6 -1 14 -8 16 -14z m-101 -6 c0 -8 -6 -12 -15 -8 -11 4
-13 1 -7 -8 6 -9 4 -11 -5 -5 -10 6 -9 11 5 22 23 16 22 16 22 -1z m47 5 c3
-5 -1 -11 -9 -14 -9 -4 -12 -1 -8 9 6 16 10 17 17 5z m19 -28 c-5 -12 -3 -14
7 -8 9 5 11 4 6 -4 -6 -9 -11 -9 -22 0 -12 10 -12 14 -2 20 18 12 18 11 11 -8z
m67 -2 c7 -15 7 -19 -5 -17 -8 1 -18 6 -22 11 -5 4 -2 5 6 0 11 -6 13 -4 8 8
-9 23 0 21 13 -2z m31 -18 c-12 -20 -14 -14 -5 12 4 9 9 14 11 11 3 -2 0 -13
-6 -23z m-201 7 c0 -5 -2 -10 -4 -10 -3 0 -8 5 -11 10 -3 6 -1 10 4 10 6 0 11
-4 11 -10z m63 -9 c3 -13 0 -18 -7 -15 -7 3 -13 11 -13 19 0 22 14 18 20 -4z
m215 -42 c-3 -8 -7 -3 -11 10 -4 17 -3 21 5 13 5 -5 8 -16 6 -23z m-233 11 c3
-6 -1 -7 -9 -4 -18 7 -21 14 -7 14 6 0 13 -4 16 -10z m95 6 c0 -3 -4 -8 -10
-11 -5 -3 -10 -1 -10 4 0 6 5 11 10 11 6 0 10 -2 10 -4z m321 -13 c13 -16 12
-17 -3 -4 -14 10 -18 10 -18 1 0 -7 -7 -10 -15 -6 -8 3 -15 1 -15 -3 0 -5 6
-12 13 -14 9 -4 9 -6 0 -6 -7 -1 -17 8 -23 18 -9 17 -7 19 10 16 11 -2 22 0
25 6 8 12 10 12 26 -8z m-77 -20 c10 -30 7 -38 -13 -39 -13 -1 -17 4 -14 13 5
12 7 12 14 2 4 -8 11 -11 14 -7 3 3 -1 13 -10 21 -17 18 -19 27 -6 27 5 0 12
-8 15 -17z m-127 1 c-3 -3 -12 -4 -19 -1 -8 3 -5 6 6 6 11 1 17 -2 13 -5z
m-104 -18 c4 -10 0 -12 -15 -8 -15 4 -17 7 -6 13 17 11 15 11 21 -5z m67 -1
c0 -1 -9 -5 -19 -8 -13 -3 -18 -1 -14 9 4 10 33 10 33 -1z m83 -4 c3 -13 1
-18 -9 -14 -7 2 -10 11 -7 19 7 19 10 18 16 -5z m157 10 c0 -6 -4 -12 -8 -15
-5 -3 -9 1 -9 9 0 8 4 15 9 15 4 0 8 -4 8 -9z m-350 -17 c0 -8 -19 -13 -24 -6
-3 5 1 9 9 9 8 0 15 -2 15 -3z m163 -17 c4 3 7 1 7 -5 0 -12 -46 -10 -58 3 -4
4 -1 4 7 0 11 -6 13 -4 7 10 -6 18 -6 18 12 2 10 -9 22 -14 25 -10z m172 -7
c3 -6 -1 -7 -9 -4 -18 7 -21 14 -7 14 6 0 13 -4 16 -10z m-29 -18 c-10 -2 -22
0 -28 6 -6 6 0 7 19 4 21 -5 23 -7 9 -10z m-36 -12 c0 -5 -6 -12 -12 -16 -7
-4 -10 -4 -6 1 4 4 3 14 -4 22 -8 11 -7 12 6 7 9 -3 16 -10 16 -14z m-200 -4
c0 -3 -4 -8 -10 -11 -5 -3 -10 -1 -10 4 0 6 5 11 10 11 6 0 10 -2 10 -4z m20
-46 c0 -5 -2 -10 -4 -10 -3 0 -8 5 -11 10 -3 6 -1 10 4 10 6 0 11 -4 11 -10z
m195 -20 c-3 -5 -12 -10 -18 -10 -7 0 -6 4 3 10 19 12 23 12 15 0z m-101 -42
c-5 -8 -2 -9 11 -4 15 5 16 4 5 -9 -17 -20 -29 -19 -25 3 5 23 4 22 11 22 3 0
2 -5 -2 -12z m31 -56 c-3 -3 -11 0 -18 7 -9 10 -8 11 6 5 10 -3 15 -9 12 -12z
m547 -669 c54 -59 58 -72 40 -109 l-16 -34 -26 42 c-31 50 -49 98 -43 116 7
18 17 15 45 -15z"/>
<path d="M3105 4090 c3 -5 11 -10 16 -10 6 0 7 5 4 10 -3 6 -11 10 -16 10 -6
0 -7 -4 -4 -10z"/>
<path d="M3780 4080 c0 -5 5 -10 10 -10 6 0 10 5 10 10 0 6 -4 10 -10 10 -5 0
-10 -4 -10 -10z"/>
<path d="M2995 3841 c-3 -5 11 -22 30 -37 34 -25 36 -26 55 -9 10 9 24 14 29
10 6 -3 11 -2 11 3 0 6 -7 13 -16 16 -8 3 -12 10 -9 16 3 5 2 10 -3 10 -17 0
-22 -13 -9 -29 10 -14 10 -14 -5 -3 -13 10 -22 11 -37 2 -20 -10 -26 -4 -22
23 2 10 -17 9 -24 -2z m75 -35 c0 -3 -4 -8 -10 -11 -5 -3 -10 -1 -10 4 0 6 5
11 10 11 6 0 10 -2 10 -4z"/>
<path d="M3786 3875 c-3 -8 -1 -15 4 -15 6 0 10 7 10 15 0 8 -2 15 -4 15 -2 0
-6 -7 -10 -15z"/>
<path d="M3795 3811 c-3 -5 -1 -12 4 -15 5 -3 11 1 15 9 6 16 -9 21 -19 6z"/>
<path d="M3240 3870 c0 -5 5 -10 11 -10 5 0 7 5 4 10 -3 6 -8 10 -11 10 -2 0
-4 -4 -4 -10z"/>
</g>
</svg>
